<?xml version="1.0" encoding="utf-8"?>
<!-- Generator: Adobe Illustrator 16.0.4, SVG Export Plug-In . SVG Version: 6.00 Build 0)  -->
<!DOCTYPE svg PUBLIC "-//W3C//DTD SVG 1.1//EN" "http://www.w3.org/Graphics/SVG/1.1/DTD/svg11.dtd">
<svg version="1.1" id="Layer_1" xmlns="http://www.w3.org/2000/svg" xmlns:xlink="http://www.w3.org/1999/xlink" x="0px" y="0px"
	 width="50px" height="50px" viewBox="0 0 50 50" enable-background="new 0 0 50 50" xml:space="preserve">
<g>
	<path d="M26.399,29.989c-0.51,0-1.549,2.76-1.549,5.962c0,2.875,0.933,2.875,1.549,2.875c0.617,0,1.549,0,1.549-2.875
		C27.948,32.749,26.91,29.989,26.399,29.989z"/>
	<path d="M19.175,29.989c-0.51,0-1.548,2.76-1.548,5.962c0,2.875,0.932,2.875,1.548,2.875c0.617,0,1.549,0,1.549-2.875
		C20.724,32.749,19.686,29.989,19.175,29.989z"/>
	<path d="M34.376,28.031c-1.154-0.562-2.215,2.65-4.355,4.67c0.07-0.483,0.115-0.997,0.115-1.555c0-3.655-1.617-7.427-3.979-9.359
		c-0.932,1.219-2.098,2.03-3.369,2.03s-2.438-0.812-3.368-2.029c-2.361,1.934-3.979,5.703-3.979,9.358
		c0,2.287,0.634,3.944,1.685,5.086c-0.002-0.098-0.013-0.178-0.013-0.281c0-2.887,0.926-6.479,2.063-6.479
		c1.141,0,2.064,3.592,2.064,6.479c0,0.997-0.115,1.693-0.309,2.201c0.595,0.103,1.214,0.158,1.855,0.158
		c0.644,0,1.258-0.066,1.853-0.17c-0.188-0.507-0.305-1.199-0.305-2.189c0-2.887,0.926-6.479,2.064-6.479
		c1.141,0,2.063,3.592,2.063,6.479c0,0.531-0.04,0.96-0.099,1.342c0.262-0.066,0.566-0.163,0.937-0.295
		C33.215,35.6,35.198,28.43,34.376,28.031z"/>
	<path d="M16.094,20.142c0.508,0.137,1.301-1.014,1.999-2.448c0.691,2.887,2.529,5.608,4.694,5.608c2.166,0,4.004-2.722,4.694-5.608
		c0.699,1.435,1.49,2.585,1.998,2.448c0.885-0.237,0.57-4.273-0.041-6.556s-1.289-1.947-2.172-1.711
		c-0.183,0.049-0.354,0.093-0.517,0.147c-0.912-0.841-2.347-0.848-3.964-0.848s-3.051,0.007-3.964,0.848
		c-0.16-0.055-0.332-0.099-0.516-0.147c-0.882-0.236-1.561-0.572-2.172,1.711C15.523,15.868,15.212,19.904,16.094,20.142z
		 M24.335,15.345c0.369,0,0.667,0.396,0.667,0.881c0,0.487-0.298,0.883-0.667,0.883c-0.368,0-0.667-0.396-0.667-0.883
		S23.967,15.345,24.335,15.345z M24.335,20.956c0,0.603-0.691,1.356-1.548,1.356c-0.855,0-1.548-0.754-1.548-1.356
		c0-0.604,0.691-0.708,1.548-0.708S24.335,20.353,24.335,20.956z M21.237,15.345c0.369,0,0.669,0.396,0.669,0.881
		c0,0.487-0.3,0.883-0.669,0.883c-0.367,0-0.665-0.396-0.665-0.883S20.87,15.345,21.237,15.345z"/>
</g>
</svg>
