<?xml version="1.0" encoding="utf-8"?>
<!-- Generator: Adobe Illustrator 16.0.4, SVG Export Plug-In . SVG Version: 6.00 Build 0)  -->
<!DOCTYPE svg PUBLIC "-//W3C//DTD SVG 1.1//EN" "http://www.w3.org/Graphics/SVG/1.1/DTD/svg11.dtd">
<svg version="1.1" id="Layer_1" xmlns="http://www.w3.org/2000/svg" xmlns:xlink="http://www.w3.org/1999/xlink" x="0px" y="0px"
	 width="72.818px" height="72.814px" viewBox="0 0 72.818 72.814" enable-background="new 0 0 72.818 72.814" xml:space="preserve">
<g>
	<path fill="#1B1819" d="M45.755,23.167c-0.143,0-0.256,0.115-0.256,0.258c0,0.209-0.17,0.377-0.377,0.377s-0.375-0.168-0.375-0.377
		c0-0.144-0.115-0.258-0.26-0.258c-0.143,0-0.258,0.115-0.258,0.258c0,0.492,0.4,0.894,0.895,0.894c0.492,0,0.893-0.399,0.893-0.894
		C46.015,23.281,45.9,23.167,45.755,23.167z"/>
	<path fill="#1B1819" d="M45.484,26.54h-0.723c-0.18,0-0.324,0.146-0.324,0.325v0.099l0.145-0.146c0.041-0.041,0.105-0.041,0.145,0
		c0.041,0.039,0.041,0.104,0,0.144l-0.289,0.289v0.188l0.385-0.383c0.037-0.039,0.104-0.039,0.143,0
		c0.039,0.038,0.041,0.104,0,0.143l-0.525,0.525v0.065c0,0.037,0.008,0.069,0.02,0.104l0.602-0.603c0.039-0.039,0.105-0.039,0.145,0
		c0.041,0.041,0.041,0.104,0,0.146l-0.621,0.621c0.053,0.036,0.117,0.059,0.184,0.059h0.723c0.18,0,0.326-0.146,0.326-0.325v-0.925
		C45.81,26.687,45.663,26.54,45.484,26.54z"/>
	<path fill="#1B1819" d="M46.831,28.98v-5.562c0-0.16-0.131-0.291-0.291-0.291h-0.262v6.144h0.262
		C46.698,29.269,46.831,29.14,46.831,28.98z"/>
	<path fill="#1B1819" d="M48.456,28.647h0.504v-5.045h-0.504c-0.377,0-0.686,0.308-0.686,0.687v3.674
		C47.773,28.341,48.079,28.647,48.456,28.647z"/>
	<path fill="#1B1819" d="M52.652,27.962v-3.674c0-0.687-0.115-0.687-0.686-0.687h-2.34v5.045h2.34
		C52.529,28.647,52.652,28.647,52.652,27.962z"/>
	<path fill="#1B1819" d="M52.876,56.208c0.02-0.117-0.002-0.244-0.076-0.353l-7.15-10.42v-2.168
		c0.381-0.104,0.664-0.449,0.664-0.861c0-0.413-0.283-0.76-0.664-0.862V31.392h0.703c0.506,0,0.916-0.41,0.916-0.916
		c0-0.246-0.1-0.47-0.258-0.634c0.309-0.168,0.518-0.489,0.518-0.862v-5.562c0-0.545-0.443-0.987-0.988-0.987h-0.234l-0.252-0.447
		c-0.002-0.006-0.006-0.012-0.008-0.019c-0.086-0.129-0.262-0.282-0.615-0.282h-0.613c-0.354,0-0.531,0.153-0.615,0.284
		c-0.004,0.005-0.006,0.011-0.01,0.017l-0.25,0.447h-0.236c-0.545,0-0.988,0.442-0.988,0.987v5.562c0,0.401,0.244,0.748,0.59,0.901
		c-0.137,0.16-0.227,0.367-0.227,0.595c0,0.506,0.41,0.916,0.916,0.916h0.264l-3.354,3.81c-0.303-0.188-0.643-0.203-0.811-0.011
		l-1.238,1.41c-0.199,0.226-0.088,0.646,0.248,0.94l0.07,0.062c0.334,0.293,0.768,0.351,0.965,0.125l1.24-1.41
		c0.168-0.192,0.111-0.528-0.117-0.805L44.7,31.61v9.935c-0.381,0.104-0.664,0.449-0.664,0.862c0,0.412,0.283,0.759,0.664,0.861
		v2.168l-7.148,10.42c-0.072,0.106-0.1,0.233-0.076,0.353c-0.713,0.043-1.235,0.178-1.235,0.34c0,0.192,0.762,0.353,1.704,0.353
		c0.938,0,1.703-0.157,1.703-0.353c0-0.157-0.498-0.291-1.189-0.336l6.242-9.097v7.025c0,0.08,0.021,0.153,0.057,0.221
		c-0.734,0.037-1.283,0.177-1.283,0.341c0,0.194,0.764,0.353,1.701,0.353c0.941,0,1.703-0.156,1.703-0.353
		c0-0.164-0.545-0.304-1.281-0.341c0.033-0.065,0.057-0.141,0.057-0.221v-7.025l6.242,9.097c-0.689,0.045-1.188,0.179-1.188,0.336
		c0,0.192,0.762,0.353,1.703,0.353s1.703-0.157,1.703-0.353C54.111,56.385,53.589,56.251,52.876,56.208z M43.704,29.452
		c-0.262,0-0.475-0.214-0.475-0.474v-5.562c0-0.263,0.213-0.474,0.475-0.474h0.387c0.096,0,0.18-0.051,0.227-0.131l0.316-0.569
		c0.021-0.029,0.094-0.048,0.182-0.048h0.613c0.09,0,0.156,0.019,0.182,0.048l0.318,0.569c0.047,0.08,0.133,0.131,0.225,0.131h0.387
		c0.262,0,0.473,0.211,0.473,0.474v5.562c0,0.26-0.211,0.474-0.473,0.474H43.704z"/>
	<path fill="#1B1819" d="M40.361,51.355l1.023-1.472c0.072-0.104,0.045-0.241-0.057-0.312s-0.24-0.045-0.312,0.056L39.991,51.1
		c-0.068,0.103-0.045,0.241,0.059,0.312C40.152,51.483,40.29,51.456,40.361,51.355z"/>
	<path fill="#1B1819" d="M48.954,49.884l1.021,1.472c0.07,0.103,0.209,0.127,0.312,0.058c0.104-0.07,0.127-0.211,0.057-0.312
		l-1.021-1.474c-0.072-0.101-0.211-0.127-0.312-0.056S48.884,49.78,48.954,49.884z"/>
	<path fill="#1B1819" d="M28.259,38.903l3.793-7.348l5.782,2.954c0.865,0.443,1.93,0.101,2.373-0.768
		c0.441-0.869,0.1-1.931-0.77-2.375l-6.36-3.253c-0.084-1.696-1.039-3.307-2.66-4.143c-2.418-1.25-5.394-0.302-6.642,2.118
		l-4.483,8.688c-0.363,0.703-0.535,1.449-0.545,2.189c-0.023,0.141-0.043,0.28-0.043,0.428v16.81c0,1.485,1.207,2.692,2.692,2.692
		c1.488,0,2.693-1.207,2.693-2.692V43.075l4.434,11.534c0.535,1.39,2.093,2.082,3.48,1.55c1.389-0.535,2.082-2.093,1.547-3.482
		L28.259,38.903z"/>
	<circle fill="#1B1819" cx="33.087" cy="19.841" r="3.928"/>
</g>
</svg>
