<?xml version="1.0" encoding="iso-8859-1"?>
<!-- Generator: Adobe Illustrator 16.0.0, SVG Export Plug-In . SVG Version: 6.00 Build 0)  -->
<!DOCTYPE svg PUBLIC "-//W3C//DTD SVG 1.1//EN" "http://www.w3.org/Graphics/SVG/1.1/DTD/svg11.dtd">
<svg version="1.1" id="Layer_1" xmlns="http://www.w3.org/2000/svg" xmlns:xlink="http://www.w3.org/1999/xlink" x="0px" y="0px"
	 width="512px" height="512px" viewBox="0 0 512 512" style="enable-background:new 0 0 512 512;" xml:space="preserve">
<g>
	<path d="M335.361,118.978c18.705,0,36.257-10.676,44.884-27.272c8.745-16.824,7.151-37.737-4.023-53.049
		c-11.123-15.242-30.256-23.124-48.892-20.149c-18.32,2.924-33.938,16.158-39.874,33.729c-6.063,17.95-1.349,38.283,11.968,51.744
		C308.868,113.523,321.935,118.978,335.361,118.978z"/>
	<path d="M430.336,270.082c0.004,0.099,0.004,0.057-0.003-0.282c-0.048-1.774-0.032-1.089-0.015-0.399
		c-0.154-5.524-0.428-11.028-0.759-16.546c-0.323-3.366-0.647-6.731-0.983-10.097c-1.2-8.862-2.722-17.578-4.646-26.312
		c-0.694-2.621-1.395-5.263-2.098-7.916c-0.82-2.642-1.632-5.3-2.502-7.953c-2.453-6.634-5.069-11.593-8.092-17.991
		c-1.96-3.711-4.007-7.338-6.123-10.961c-10.623-16.615-24.805-31.076-42.692-39.908c-12.551-6.198-34.218-10.739-53.781-0.224
		c-21.376,11.488-38.714,29.689-49.74,50.958c-9.359-23.466-25.673-44.463-48.363-56.257c-3.284-1.706-6.68-3.205-10.173-4.427
		c-16.007-5.601-35.359-5.673-52.79,1.699c-4.917,2.081-9.621,4.667-14.067,7.619c-10.621,7.049-19.709,16.265-26.974,26.717
		c-14.851,21.365-21.749,47.209-24.007,72.873c-1.74,19.772-0.883,39.816,1.627,59.488l0.021,0.171
		c1.026,7.757,8.187,13.489,15.975,12.837c7.846-0.655,13.944-7.605,13.593-15.468c-0.148,0-0.248-10.743-0.251-11.842
		c-0.02-5.979,0.141-11.958,0.516-17.924c0.81-12.898,2.6-25.784,6.021-38.263c2.436-8.885,5.733-17.552,10.23-25.606l-10.94,90.338
		c-1.582,13.75,1.719,27.747,9.514,39.208l7.696,162.301c0.463,9.124,8.251,16.538,17.394,16.495
		c9.104-0.044,16.791-7.449,17.198-16.539l5.498-122.612l5.714,122.642c0.454,9.124,8.236,16.546,17.379,16.509
		c9.104-0.036,16.798-7.435,17.212-16.524l7.44-162.868c7.27-10.987,10.833-24.508,9.125-38.612l-10.81-89.25
		c12.052,22.273,15.551,48.53,16.092,73.524c-0.168,5.851-0.182,19.022-0.182,19.022c0.245,8.046,5.602,14.651,13.313,15.441
		c8.313,0.854,16.045-5.411,16.734-13.76l0.047-0.566c0.277-3.356,0.554-6.712,0.828-10.068c0.749-6.427,1.608-12.812,2.607-19.205
		c2.454-12.644,5.498-25.04,10.244-37.043c0.887-2.027,1.695-4.106,2.629-6.098V230.5l-26.646,133.165
		c-0.528,2.699,0.169,5.464,1.915,7.584c1.747,2.124,4.326,3.341,7.075,3.341h21l5.333,110.237
		c0.477,9.168,8.27,16.643,17.46,16.667c9.212,0.024,17.045-7.413,17.521-16.607l5.713-110.296h2.204l5.334,110.237
		c0.476,9.168,8.27,16.643,17.46,16.667c9.211,0.024,17.044-7.413,17.521-16.607l5.712-110.296h20.754
		c2.742,0,5.317-1.214,7.065-3.33c1.746-2.117,2.449-4.876,1.918-7.623l-26.604-135.175V217.07c0.433,1.029,0.867,2.061,1.299,3.088
		c0.768,2.087,1.531,4.167,2.291,6.229c2.299,7.186,4.238,14.393,5.948,21.739c0.562,2.899,1.116,5.799,1.672,8.699
		c1.473,9.628,2.554,19.232,3.357,28.938l0.05,0.62c0.684,7.932,7.731,14.062,15.672,13.691c7.843-0.366,14.217-6.994,14.298-14.839
		C430.366,280.183,430.433,275.134,430.336,270.082z"/>
	<path d="M142.924,96.683c9.137,8.246,21.175,12.868,33.481,12.868c18.698,0,36.213-10.792,44.646-27.48
		c8.546-16.917,6.59-37.816-4.922-52.861c-11.475-14.995-30.888-22.342-49.42-18.701c-18.187,3.574-33.272,17.453-38.371,35.27
		C123.131,63.973,128.883,84.011,142.924,96.683z"/>
</g>
</svg>
