<?xml version="1.0" encoding="utf-8"?>
<!-- Generator: Adobe Illustrator 17.1.0, SVG Export Plug-In . SVG Version: 6.00 Build 0)  -->
<!DOCTYPE svg PUBLIC "-//W3C//DTD SVG 1.1//EN" "http://www.w3.org/Graphics/SVG/1.1/DTD/svg11.dtd">
<svg version="1.1" id="Layer_1" xmlns="http://www.w3.org/2000/svg" xmlns:xlink="http://www.w3.org/1999/xlink" x="0px" y="0px"
	 width="1000px" height="1000px" viewBox="0 0 1000 1000" enable-background="new 0 0 1000 1000" xml:space="preserve">
<path d="M207.459,888.835l106.154,26.774c1.463,0.369,2.959,0.556,4.447,0.556c7.971,0,14.917-5.125,17.285-12.751l61.703-198.767
	l30.76-220.103l0.177-0.701c4.174-16.548-5.894-33.406-22.442-37.58c-6.621-1.67-13.29-1.055-19.178,1.338
	c-8.828,3.587-15.898,11.177-18.402,21.104l-6.598,27.065l-6.499,26.657l-8.387,34.405l-9.556,39.197l-0.1,0.41l-0.287-0.185
	l-0.171-0.11v0.788l-12.698,50.345c-1.185,4.699-4.639,8.496-9.206,10.118c-1.58,0.561-3.221,0.836-4.853,0.836
	c-3.083,0-6.133-0.983-8.673-2.879c-2.284-1.705-22.327-17.279-22.642-38.946c-0.121-8.339,2.703-20.631,16.843-31.836
	c0.251-0.2,0.51-0.391,0.774-0.573l14.908-10.279l16.545-60.775c-16.742-3.685-45.997-9.133-72.62-9.133
	c-26.109,0-43.625,5.333-49.322,15.016c-3.544,6.024-11.965,33.474-13.618,157.954c-0.993,74.759,0.812,154.272,1.976,195.016
	C194.011,879.854,199.635,886.862,207.459,888.835z"/>
<path d="M344.738,452.034c3.863-8.493,9.617-15.747,16.628-21.361c1.258-1.008,2.557-1.961,3.892-2.861
	c6.352-4.284,13.522-7.328,21.108-8.876v-12.262v-13.854V78.881c0-6.975,5.674-12.649,12.649-12.649h416.53
	c6.975,0,12.649,5.674,12.649,12.649v421.016h-73.707c-30.86,0-55.967,25.107-55.967,55.967v73.707H493.478h-16.352h-23.352h-21.653
	l-0.009,0.064l-1.778,12.424l-1.791,12.512l-3.578,25h6.043h283.066c16.581,0,32.79-6.751,44.472-18.523l101.471-102.264
	c11.722-11.814,18.177-27.485,18.177-44.126V78.881c0-34.545-28.104-62.649-62.649-62.649h-416.53
	c-34.544,0-62.649,28.104-62.649,62.649v401.001l4.878-17.918C342.119,458.493,343.305,455.183,344.738,452.034z M748.521,600.167
	v-44.302c0-3.291,2.677-5.967,5.967-5.967H798.4L748.521,600.167z"/>
<path d="M193.684,961.363l93.17,21.943c11.792,2.777,23.603-4.531,26.38-16.323l1.405-5.967c1.858-7.892-0.804-15.787-6.301-20.982
	c-2.716-2.568-6.122-4.479-10.022-5.397l-93.17-21.943c-2.301-0.542-4.601-0.695-6.836-0.511
	c-9.22,0.761-17.308,7.342-19.544,16.833l-1.405,5.967C174.584,946.775,181.892,958.586,193.684,961.363z"/>
<path d="M500.324,146.442c4.967-3.545,11.254-5.268,19.223-5.268c6.461,0,11.485,1.417,15.357,4.331
	c3.923,2.953,7.113,8.22,9.483,15.653c1.983,6.223,8.43,9.87,14.775,8.371l17.906-4.219c3.336-0.786,6.203-2.907,7.93-5.867
	c1.728-2.96,2.164-6.499,1.207-9.79c-4.447-15.296-12.562-27.428-24.119-36.058c-11.539-8.615-25.726-12.983-42.165-12.983
	c-14.193,0-27.428,3.309-39.335,9.835c-12.278,6.728-21.853,16.665-28.458,29.535c-6.358,12.388-9.583,26.91-9.583,43.161
	c0,14.749,2.777,28.785,8.255,41.717c5.81,13.722,14.52,24.425,25.886,31.811c11.298,7.343,25.75,11.066,42.953,11.066
	c17.133,0,31.966-4.867,44.088-14.466c12.056-9.545,20.443-23.299,24.93-40.88c0.821-3.218,0.329-6.629-1.369-9.483
	c-1.698-2.854-4.462-4.914-7.681-5.728l-18.188-4.594c-3.286-0.829-6.771-0.29-9.65,1.498c-2.881,1.787-4.912,4.667-5.629,7.98
	c-1.884,8.714-5.288,15.17-10.119,19.188c-4.791,3.985-10.641,5.922-17.882,5.922c-6.124,0-11.656-1.533-16.913-4.688
	c-4.792-2.875-8.285-7.251-10.679-13.378c-2.821-7.22-4.252-15.987-4.252-26.06c0-7.661,1.23-15.197,3.658-22.4
	C491.987,154.618,495.378,149.971,500.324,146.442z"/>
<path d="M691.578,265.393h18.656c5.145,0,9.764-3.152,11.64-7.942l53.812-137.438c1.506-3.848,1.015-8.19-1.314-11.603
	c-2.329-3.413-6.193-5.455-10.325-5.455h-18.562c-5.224,0-9.896,3.248-11.716,8.144l-32.636,87.771l-31.348-87.625
	c-1.778-4.972-6.489-8.29-11.77-8.29h-19.688c-4.124,0-7.982,2.034-10.312,5.436s-2.833,7.735-1.343,11.58l53.25,137.438
	C681.787,262.221,686.417,265.393,691.578,265.393z"/>
<path d="M462.482,347.679h289.596c13.808,0,25-11.193,25-25s-11.192-25-25-25H462.482c-13.807,0-25,11.193-25,25
	S448.675,347.679,462.482,347.679z"/>
<path d="M457.41,437.306c1.638,0.338,3.334,0.516,5.073,0.516h7.955h281.641c13.808,0,25-11.193,25-25s-11.192-25-25-25H462.482
	c-8.171,0-15.426,3.921-19.988,9.984c-2.541,3.377-4.24,7.421-4.802,11.82c-0.134,1.047-0.21,2.112-0.21,3.196
	C437.482,424.891,446.035,434.962,457.41,437.306z"/>
</svg>
