<?xml version="1.0" encoding="utf-8"?>
<!-- Generator: Adobe Illustrator 16.0.4, SVG Export Plug-In . SVG Version: 6.00 Build 0)  -->
<!DOCTYPE svg PUBLIC "-//W3C//DTD SVG 1.1//EN" "http://www.w3.org/Graphics/SVG/1.1/DTD/svg11.dtd">
<svg version="1.1" id="Layer_1" xmlns="http://www.w3.org/2000/svg" xmlns:xlink="http://www.w3.org/1999/xlink" x="0px" y="0px"
	 width="50px" height="50px" viewBox="0 0 50 50" enable-background="new 0 0 50 50" xml:space="preserve">
<path d="M42.666,32.667V11H7.334v21.667h14.001V35h-3.668v4h14.666v-4h-3.668v-2.333H42.666z M33.553,18.338h0.769h0.772v6.067
	h3.668v0.651v0.658h-5.209V18.338z M17.205,25.715h-0.769h-0.772v-3.342h-2.885v3.342H12.01h-0.772v-7.377h0.768h0.773v2.766h2.885
	v-2.766h0.768h0.773V25.715z M24.075,18.991v0.656h-2.229v6.067h-0.768h-0.772v-6.067h-2.228v-0.651v-0.658h5.996L24.075,18.991
	L24.075,18.991z M28.495,25.715h-0.757l-1.379-6.337h-0.002v6.337h-0.717h-0.723v-7.377h1.129h1.129l1.344,5.846l1.326-5.846h1.113
	h1.113v7.377h-0.717h-0.725v-6.199l-1.379,6.199H28.495z"/>
</svg>
