<?xml version="1.0" encoding="utf-8"?>
<!-- Generator: Adobe Illustrator 16.0.0, SVG Export Plug-In . SVG Version: 6.00 Build 0)  -->
<!DOCTYPE svg PUBLIC "-//W3C//DTD SVG 1.1//EN" "http://www.w3.org/Graphics/SVG/1.1/DTD/svg11.dtd">
<svg version="1.1" id="Layer_1" xmlns="http://www.w3.org/2000/svg" xmlns:xlink="http://www.w3.org/1999/xlink" x="0px" y="0px"
	 width="126px" height="126px" viewBox="0 0 126 126" enable-background="new 0 0 126 126" xml:space="preserve">
<path d="M74.458,107.921c0.143,0.008,0.287,0.021,0.434,0.021h33c3.859,0,7-3.141,7-7v-76.5c0-3.859-3.141-7-7-7h-33
	c-0.146,0-0.291,0.014-0.434,0.021V8.332l-64.41,8.596v91.586l64.41,8.818V107.921z M74.892,21.443h33c1.654,0,3,1.346,3,3v76.5
	c0,1.654-1.346,3-3,3h-33c-0.148,0-0.291-0.023-0.434-0.044V71.456c1.034,0.818,3.981,1.389,10.6,1.389
	c8.965-0.002,12.902-1.646,13.547-2.34c0.646-0.699-0.201-1.246-0.201-1.246s0.299,0.348-0.096,0.746
	c-0.398,0.396-4.037,1.393-9.865,1.691c-5.826,0.301-12.152-0.547-12.354-1.295c-0.193-0.746,3.24-1.342,3.24-1.342
	c-0.327,0.041-3.638,0.117-4.871,0.872V21.487C74.601,21.466,74.743,21.443,74.892,21.443z M26.63,63.167
	c0,5.893-2.619,7.874-6.764,7.757c-0.967-0.026-2.23-0.243-3.053-0.563l0.465-3.676c0.576,0.221,1.318,0.385,2.145,0.4
	c1.777,0.032,2.896-0.828,2.896-4.016V50.197l4.311-0.104V63.167z M42.392,71.208l-1.604-5.54l-5.846-0.082l-1.43,5.38l-4.631-0.127
	l6.061-20.947l6.059-0.146l6.529,21.603L42.392,71.208z M62.069,71.746c-0.373-0.643-0.914-2.49-1.588-5.266
	c-0.605-2.801-1.578-3.572-3.645-3.621l-1.516-0.01v8.713l-4.914-0.135V49.812c1.582-0.298,3.961-0.551,6.631-0.617
	c3.342-0.08,5.711,0.363,7.352,1.6c1.377,1.051,2.139,2.621,2.139,4.713c0,2.9-2.104,4.889-4.084,5.588v0.1
	c1.604,0.643,2.494,2.16,3.08,4.251c0.727,2.571,1.453,5.556,1.904,6.446L62.069,71.746z"/>
<path d="M57.603,52.916c-1.227,0.02-1.922,0.131-2.281,0.201v6.115l1.982-0.002c2.537-0.003,4.055-1.272,4.055-3.239
	C61.358,53.923,59.942,52.914,57.603,52.916z"/>
<path d="M37.798,53.419l-0.061,0.002c-0.301,1.265-0.604,2.875-0.934,4.104l-1.203,4.492l4.514,0.025l-1.283-4.529
	C38.466,56.252,38.103,54.677,37.798,53.419z"/>
<path d="M86.575,57.902c0,0-2.018-3.887-1.943-6.727c0.055-2.028,4.631-4.034,6.428-6.947c1.791-2.914-0.225-5.752-0.225-5.752
	s0.449,2.093-0.746,4.258c-1.195,2.167-5.607,3.439-7.324,7.172C81.05,53.642,86.575,57.902,86.575,57.902z"/>
<path d="M94.124,46.097c0,0-6.873,2.615-6.873,5.602c0,2.99,1.867,3.961,2.166,4.932c0.299,0.973-0.521,2.615-0.521,2.615
	s2.689-1.867,2.238-4.035c-0.449-2.167-2.541-2.84-1.344-5.005C90.589,48.754,94.124,46.097,94.124,46.097z"/>
<path d="M85.831,61.849c7.092-0.253,7.926-1.588,8.666-2.23c-4.107,1.119-15.016,1.047-15.094,0.225
	c-0.072-0.821,3.361-1.494,3.361-1.494s-5.377,0-5.826,1.344C76.489,61.039,79.483,62.072,85.831,61.849z"/>
<path d="M95.021,64.998c0,0,6.586-1.325,5.973-4.702c-0.746-4.11-5.451-1.795-5.451-1.795s3.064,0,3.361,1.866
	C99.202,62.235,95.021,64.998,95.021,64.998z"/>
<path d="M80.896,63.427c-0.293-0.522,0.525-0.82,0.525-0.82c-3.738,0.898-1.695,2.465,2.686,2.766
	c3.754,0.256,7.949-1.121,7.949-1.121l1.293-1.045c0,0-2.959,0.41-5.281,0.672C84.956,64.228,81.196,63.953,80.896,63.427z"/>
<path d="M82.171,67.017c-0.152-0.35,0.148-0.547,0.148-0.547s-1.695,0.048-1.793,0.945c-0.1,0.891,0.525,1.345,4.717,1.245
	c4.99-0.118,5.822-0.712,6.336-1.146l1.217-0.916c-3.262,0.422-3.514,0.539-5.361,0.592C85.575,67.244,82.319,67.363,82.171,67.017z
	"/>
<path d="M95.118,73.442c-3.936,0.796-15.885,0.294-15.885,0.294s7.766,1.844,16.633,0.301c4.238-0.738,4.484-2.79,4.484-2.79
	S99.054,72.643,95.118,73.442z"/>
</svg>
