<?xml version="1.0" encoding="utf-8"?>
<!-- Generator: Adobe Illustrator 16.0.4, SVG Export Plug-In . SVG Version: 6.00 Build 0)  -->
<!DOCTYPE svg PUBLIC "-//W3C//DTD SVG 1.1//EN" "http://www.w3.org/Graphics/SVG/1.1/DTD/svg11.dtd">
<svg version="1.1" id="Capa_1" xmlns="http://www.w3.org/2000/svg" xmlns:xlink="http://www.w3.org/1999/xlink" x="0px" y="0px"
	 width="64px" height="64px" viewBox="0 0 64 64" enable-background="new 0 0 64 64" xml:space="preserve">
<g>
	<path d="M28.667,12.537c-13.439,0-24.333,8.472-24.333,18.923c0,6.447,9.1,6.478,16.681,5.384
		c5.62-0.811,10.052,1.354,10.052,5.656s4.753,7.643,9.917,5.282C48.174,44.494,53,38.416,53,31.46
		C53,21.009,42.105,12.537,28.667,12.537z M13.33,26.606c-1.278,0-2.313-1.036-2.313-2.313c0-1.278,1.036-2.313,2.313-2.313
		s2.313,1.036,2.313,2.313S14.607,26.606,13.33,26.606z M20.898,21.631c-1.278,0-2.313-1.036-2.313-2.313
		c0-1.278,1.036-2.313,2.313-2.313c1.278,0,2.313,1.036,2.313,2.313C23.212,20.595,22.176,21.631,20.898,21.631z M30.98,20.817
		c-1.278,0-2.313-1.036-2.313-2.313c0-1.278,1.036-2.313,2.313-2.313c1.278,0,2.313,1.036,2.313,2.313
		C33.293,19.781,32.258,20.817,30.98,20.817z M39.291,43.865c-2.116,0-3.831-1.715-3.831-3.831s1.715-3.831,3.831-3.831
		s3.831,1.715,3.831,3.831C43.122,42.148,41.407,43.865,39.291,43.865z M40.809,23.943c-1.277,0-2.312-1.036-2.312-2.313
		c0-1.277,1.035-2.313,2.312-2.313c1.278,0,2.313,1.036,2.313,2.313C43.122,22.908,42.086,23.943,40.809,23.943z M45.436,32.864
		c-1.277,0-2.312-1.036-2.312-2.313c0-1.278,1.036-2.313,2.312-2.313c1.278,0,2.313,1.036,2.313,2.313
		C47.749,31.828,46.713,32.864,45.436,32.864z"/>
</g>
</svg>
