<?xml version="1.0" encoding="utf-8"?>
<!-- Generator: Adobe Illustrator 16.0.0, SVG Export Plug-In . SVG Version: 6.00 Build 0)  -->
<!DOCTYPE svg PUBLIC "-//W3C//DTD SVG 1.1//EN" "http://www.w3.org/Graphics/SVG/1.1/DTD/svg11.dtd">
<svg version="1.1" xmlns="http://www.w3.org/2000/svg" xmlns:xlink="http://www.w3.org/1999/xlink" x="0px" y="0px" width="50px"
	 height="50px" viewBox="0 0 50 50" enable-background="new 0 0 50 50" xml:space="preserve">
<g id="_x31_">
</g>
<g id="_x32_">
</g>
<g id="Layer_3">
</g>
<g id="Layer_4">
</g>
<g id="Layer_5">
</g>
<g id="Layer_6">
</g>
<g id="Layer_7">
</g>
<g id="Layer_8">
</g>
<g id="Layer_9">
</g>
<g id="Layer_10">
</g>
<g id="Layer_11">
</g>
<g id="Layer_12">
</g>
<g id="Layer_13">
</g>
<g id="Layer_14">
</g>
<g id="Layer_15">
</g>
<g id="Layer_16">
</g>
<g id="Layer_17">
</g>
<g id="Layer_19">
	<g>
		<path d="M48.584,38.334V8.115H1.416v30.219h19.252v1.945H10.604v1.605h28.179v-1.605h-9.846v-1.945H48.584z M4.866,33.884V11.565
			h40.267v22.318H4.866z"/>
		<path d="M12.381,20.633h25.166v-6.166H12.381V20.633z M12.881,14.967h24.166v5.166H12.881V14.967z"/>
		<path d="M12.357,27.18h7.739v-5.563h-7.739V27.18z M12.857,22.117h6.739v4.563h-6.739V22.117z"/>
		<path d="M21.063,27.18h7.738v-5.563h-7.738V27.18z M21.563,22.117h6.738v4.563h-6.738V22.117z"/>
		<path d="M37.569,21.617H29.83v5.563h7.739V21.617z M37.069,26.68H30.33v-4.563h6.739V26.68z"/>
		<rect x="12.357" y="28.445" width="6.976" height="0.484"/>
		<rect x="12.357" y="29.336" width="7.739" height="0.484"/>
		<rect x="12.357" y="30.258" width="6.304" height="0.484"/>
		<rect x="12.357" y="31.258" width="7.054" height="0.484"/>
		<rect x="11.904" y="32.197" width="4.522" height="0.484"/>
		<rect x="21.063" y="28.445" width="6.976" height="0.484"/>
		<rect x="21.063" y="29.336" width="7.739" height="0.484"/>
		<rect x="21.063" y="30.258" width="6.304" height="0.484"/>
		<rect x="21.063" y="31.258" width="7.054" height="0.484"/>
		<rect x="20.609" y="32.197" width="4.522" height="0.484"/>
		<rect x="29.906" y="28.406" width="6.976" height="0.484"/>
		<rect x="29.906" y="29.297" width="7.739" height="0.484"/>
		<rect x="29.906" y="30.219" width="6.304" height="0.484"/>
		<rect x="29.906" y="31.219" width="7.054" height="0.484"/>
		<rect x="29.453" y="32.158" width="4.522" height="0.484"/>
		<path d="M23.917,12.445H12.354v1.406h11.563V12.445z M23.417,13.352H12.854v-0.406h10.563V13.352z"/>
	</g>
</g>
<g id="Layer_20">
</g>
<g id="Layer_21">
</g>
<g id="Layer_22">
</g>
<g id="Layer_23">
</g>
<g id="Layer_24">
</g>
<g id="Layer_25">
</g>
<g id="Layer_26">
</g>
<g id="Layer_27">
</g>
<g id="Layer_28">
</g>
<g id="Layer_29">
</g>
<g id="Layer_30">
</g>
<g id="Layer_31">
</g>
<g id="Layer_32">
</g>
<g id="Layer_33">
</g>
<g id="Layer_34">
</g>
<g id="Layer_35">
</g>
<g id="Layer_36">
</g>
<g id="Layer_37">
</g>
<g id="Layer_38">
</g>
<g id="Layer_39">
</g>
<g id="Layer_40">
</g>
<g id="Layer_41">
</g>
<g id="Layer_42">
</g>
<g id="Layer_43">
</g>
<g id="Layer_44">
</g>
<g id="Layer_45">
</g>
<g id="Layer_46">
</g>
<g id="Layer_47">
</g>
<g id="Layer_48">
</g>
<g id="Layer_49">
</g>
<g id="Layer_50">
</g>
<g id="Layer_51">
</g>
<g id="Layer_52">
</g>
<g id="Layer_53">
</g>
<g id="Layer_57">
</g>
<g id="Layer_54">
</g>
<g id="Layer_55">
</g>
<g id="Layer_56">
</g>
<g id="Layer_59">
</g>
<g id="Layer_60">
</g>
<g id="Layer_61">
</g>
<g id="Layer_62">
</g>
<g id="Layer_63">
</g>
<g id="Layer_64">
</g>
<g id="Layer_65">
</g>
<g id="Layer_66">
</g>
<g id="Layer_67">
</g>
<g id="Layer_68">
</g>
<g id="Layer_69">
</g>
<g id="Layer_70">
</g>
<g id="Layer_71">
</g>
<g id="Layer_72">
</g>
<g id="Layer_73">
</g>
<g id="Layer_74">
</g>
<g id="Layer_75">
</g>
<g id="Layer_76">
</g>
<g id="Layer_77">
</g>
<g id="Layer_78">
</g>
<g id="Layer_79">
</g>
<g id="Layer_80">
</g>
<g id="Layer_81">
</g>
<g id="Layer_82">
</g>
<g id="Layer_83">
</g>
<g id="Layer_84">
</g>
<g id="Layer_85">
</g>
<g id="Layer_86">
</g>
<g id="Layer_87">
</g>
<g id="Layer_88">
</g>
<g id="Layer_89">
</g>
<g id="Layer_90">
</g>
<g id="Layer_91">
</g>
<g id="Layer_92">
</g>
<g id="Layer_93">
</g>
<g id="Layer_94">
</g>
<g id="Layer_95">
</g>
<g id="Layer_96">
</g>
<g id="Layer_97">
</g>
<g id="Layer_98">
</g>
<g id="Layer_99">
</g>
<g id="Layer_100">
</g>
<g id="Layer_101">
</g>
<g id="text">
</g>
</svg>
