<?xml version="1.0" encoding="utf-8"?>
<!-- Generator: Adobe Illustrator 16.0.4, SVG Export Plug-In . SVG Version: 6.00 Build 0)  -->
<!DOCTYPE svg PUBLIC "-//W3C//DTD SVG 1.1//EN" "http://www.w3.org/Graphics/SVG/1.1/DTD/svg11.dtd">
<svg version="1.1" id="Capa_1" xmlns="http://www.w3.org/2000/svg" xmlns:xlink="http://www.w3.org/1999/xlink" x="0px" y="0px"
	 width="500px" height="500px" viewBox="0 0 500 500" enable-background="new 0 0 500 500" xml:space="preserve">
<path d="M286.312,71.848c0-27.229,22.074-49.304,49.303-49.304c27.229,0,49.304,22.074,49.304,49.304
	c0,27.229-22.074,49.303-49.304,49.303C308.386,121.151,286.312,99.077,286.312,71.848z M405.691,235.395l91.774-78.847
	l-23.818-27.725l-69.175,59.43l-51.287-39.899l-87.272-34.003H157.667l-51.51,116.513l-13.736-5.73l-5.551,13.306l-2.059,4.934
	l-2.058,4.935l-16.035-6.69l-37.044,88.805l86.302,36.004l7.024,2.929l1.492-3.577l35.553-85.228l-15.622-6.517l2.057-4.934
	l2.06-4.935l5.548-13.306l-14.193-5.92l41.576-94.038h71.212l-49.11,135.729l-11.979,74.054l-21.74,1.651l-9.438,22.626
	l-4.116,9.866l-9.868-4.114L92.48,368.207l-8.796,0.665l3.689,48.597l145.972-11.077l14.819-88.381l3.575,2.514l57.673,42.648
	l5.662,114.282l48.675-2.409l-6.809-137.334l-70.611-52.223l50.408-103.404L405.691,235.395z M39.584,230.302L2.539,319.104
	l14.8,6.174l37.045-88.802L39.584,230.302z M157.889,363.24l29.704-71.201l-15.212-6.345l-32.936,78.948l-4.11,9.856l15.211,6.346
	L157.889,363.24z"/>
</svg>
